<svg xmlns="http://www.w3.org/2000/svg" xmlns:xlink="http://www.w3.org/1999/xlink" width="170" zoomAndPan="magnify" viewBox="0 0 127.5 37.5" height="50" preserveAspectRatio="xMidYMid meet" version="1.0"><defs><g/><clipPath id="e0164393c0"><path d="M 0.59375 0 L 126.414062 0 L 126.414062 37.007812 L 0.59375 37.007812 Z M 0.59375 0 " clip-rule="nonzero"/></clipPath><clipPath id="2829787cbe"><path d="M 5 5 L 33 5 L 33 32 L 5 32 Z M 5 5 " clip-rule="nonzero"/></clipPath><clipPath id="3b6f6dd68c"><path d="M 0.597656 19.976562 L 20.398438 0.0078125 L 37.742188 17.203125 L 17.941406 37.175781 Z M 0.597656 19.976562 " clip-rule="nonzero"/></clipPath><clipPath id="da5ee3a642"><path d="M 0.910156 19.664062 L 20.09375 0.316406 L 37.257812 17.332031 L 18.074219 36.679688 Z M 0.910156 19.664062 " clip-rule="nonzero"/></clipPath><clipPath id="a5bd9e0c6e"><path d="M 29.5625 10.65625 L 32.039062 19.871094 C 32.394531 21.199219 32.019531 22.613281 31.050781 23.589844 L 24.277344 30.421875 C 23.308594 31.398438 21.894531 31.785156 20.566406 31.441406 L 11.328125 29.042969 C 10 28.695312 8.960938 27.664062 8.605469 26.339844 L 6.128906 17.125 C 5.769531 15.796875 6.144531 14.382812 7.113281 13.40625 L 13.890625 6.570312 C 14.855469 5.597656 16.269531 5.207031 17.601562 5.554688 L 26.835938 7.953125 C 28.164062 8.300781 29.203125 9.332031 29.5625 10.65625 Z M 29.5625 10.65625 " clip-rule="nonzero"/></clipPath><clipPath id="993d1fd4e6"><path d="M 9 9 L 29 9 L 29 28 L 9 28 Z M 9 9 " clip-rule="nonzero"/></clipPath><clipPath id="d5a164770e"><path d="M 6.429688 19.253906 L 19.738281 5.832031 L 31.75 17.742188 L 18.441406 31.164062 Z M 6.429688 19.253906 " clip-rule="nonzero"/></clipPath><clipPath id="7f11cff43a"><path d="M 26.402344 12.941406 L 28.175781 19.53125 C 28.414062 20.417969 28.164062 21.363281 27.515625 22.011719 L 22.671875 26.898438 C 22.023438 27.550781 21.082031 27.808594 20.195312 27.578125 L 13.589844 25.863281 C 12.703125 25.632812 12.007812 24.945312 11.773438 24.058594 L 10 17.46875 C 9.761719 16.582031 10.011719 15.636719 10.65625 14.988281 L 15.503906 10.101562 C 16.148438 9.449219 17.089844 9.191406 17.976562 9.421875 L 24.585938 11.136719 C 25.472656 11.367188 26.164062 12.054688 26.402344 12.941406 Z M 26.402344 12.941406 " clip-rule="nonzero"/></clipPath><clipPath id="1f5b2d4a7d"><path d="M 9 9 L 29 9 L 29 28 L 9 28 Z M 9 9 " clip-rule="nonzero"/></clipPath><clipPath id="2773595d69"><path d="M 6.148438 19.535156 L 20.21875 5.34375 L 32.308594 17.328125 L 18.238281 31.519531 Z M 6.148438 19.535156 " clip-rule="nonzero"/></clipPath><clipPath id="37f9f62948"><path d="M 6.367188 19.3125 L 19.789062 5.777344 L 31.792969 17.683594 L 18.375 31.21875 Z M 6.367188 19.3125 " clip-rule="nonzero"/></clipPath><clipPath id="6c8405145c"><path d="M 26.390625 12.941406 L 28.164062 19.527344 C 28.402344 20.414062 28.152344 21.359375 27.507812 22.007812 L 22.664062 26.890625 C 22.019531 27.542969 21.074219 27.800781 20.191406 27.570312 L 13.585938 25.855469 C 12.703125 25.625 12.007812 24.9375 11.769531 24.054688 L 10 17.464844 C 9.761719 16.582031 10.011719 15.636719 10.65625 14.988281 L 15.5 10.101562 C 16.144531 9.453125 17.085938 9.195312 17.972656 9.425781 L 24.574219 11.140625 C 25.460938 11.371094 26.15625 12.058594 26.390625 12.941406 Z M 26.390625 12.941406 " clip-rule="nonzero"/></clipPath><clipPath id="d3c67b103e"><path d="M 22 5 L 33 5 L 33 15 L 22 15 Z M 22 5 " clip-rule="nonzero"/></clipPath><clipPath id="497dc8841f"><path d="M 20.78125 10.050781 L 27.53125 3.300781 L 34.285156 10.050781 L 27.53125 16.804688 Z M 20.78125 10.050781 " clip-rule="nonzero"/></clipPath><clipPath id="690882d9fc"><path d="M 24.15625 6.675781 C 22.292969 8.539062 22.292969 11.5625 24.15625 13.429688 C 26.019531 15.292969 29.042969 15.292969 30.910156 13.429688 C 32.773438 11.5625 32.773438 8.539062 30.910156 6.675781 C 29.042969 4.8125 26.019531 4.8125 24.15625 6.675781 Z M 24.15625 6.675781 " clip-rule="nonzero"/></clipPath><clipPath id="11ed6efc0f"><path d="M 23 5 L 32 5 L 32 15 L 23 15 Z M 23 5 " clip-rule="nonzero"/></clipPath><clipPath id="71ee981c26"><path d="M 21.765625 10.054688 L 27.53125 4.285156 L 33.300781 10.054688 L 27.53125 15.820312 Z M 21.765625 10.054688 " clip-rule="nonzero"/></clipPath><clipPath id="cbe38d1389"><path d="M 24.648438 7.171875 C 23.054688 8.761719 23.054688 11.34375 24.648438 12.9375 C 26.242188 14.53125 28.824219 14.53125 30.414062 12.9375 C 32.007812 11.34375 32.007812 8.761719 30.414062 7.171875 C 28.824219 5.578125 26.242188 5.578125 24.648438 7.171875 Z M 24.648438 7.171875 " clip-rule="nonzero"/></clipPath><clipPath id="683800dcbe"><path d="M 5 22 L 16 22 L 16 32 L 5 32 Z M 5 22 " clip-rule="nonzero"/></clipPath><clipPath id="403fee4b35"><path d="M 3.808594 27.023438 L 10.558594 20.273438 L 17.3125 27.023438 L 10.558594 33.777344 Z M 3.808594 27.023438 " clip-rule="nonzero"/></clipPath><clipPath id="cc793c3ef4"><path d="M 7.183594 23.648438 C 5.320312 25.515625 5.320312 28.535156 7.183594 30.402344 C 9.046875 32.265625 12.070312 32.265625 13.933594 30.402344 C 15.800781 28.535156 15.800781 25.515625 13.933594 23.648438 C 12.070312 21.785156 9.046875 21.785156 7.183594 23.648438 Z M 7.183594 23.648438 " clip-rule="nonzero"/></clipPath><clipPath id="222e9ba741"><path d="M 6 22 L 15 22 L 15 32 L 6 32 Z M 6 22 " clip-rule="nonzero"/></clipPath><clipPath id="0656bda752"><path d="M 4.789062 27.027344 L 10.558594 21.261719 L 16.324219 27.027344 L 10.558594 32.796875 Z M 4.789062 27.027344 " clip-rule="nonzero"/></clipPath><clipPath id="1f74bca9ef"><path d="M 7.675781 24.144531 C 6.082031 25.738281 6.082031 28.320312 7.675781 29.910156 C 9.265625 31.503906 11.847656 31.503906 13.441406 29.910156 C 15.035156 28.320312 15.035156 25.738281 13.441406 24.144531 C 11.847656 22.550781 9.265625 22.550781 7.675781 24.144531 Z M 7.675781 24.144531 " clip-rule="nonzero"/></clipPath></defs><g clip-path="url(#e0164393c0)"><path fill="#ffffff" d="M 0.59375 0 L 126.414062 0 L 126.414062 37.007812 L 0.59375 37.007812 Z M 0.59375 0 " fill-opacity="1" fill-rule="nonzero"/><path fill="#ffffff" d="M 0.59375 0 L 126.414062 0 L 126.414062 37.007812 L 0.59375 37.007812 Z M 0.59375 0 " fill-opacity="1" fill-rule="nonzero"/></g><g clip-path="url(#2829787cbe)"><g clip-path="url(#3b6f6dd68c)"><g clip-path="url(#da5ee3a642)"><g clip-path="url(#a5bd9e0c6e)"><path stroke-linecap="butt" transform="matrix(0.52113, -0.525565, 0.525565, 0.52113, 0.599915, 19.974397)" fill="none" stroke-linejoin="miter" d="M 36.492799 18.922676 L 30.007917 30.065036 C 29.071854 31.669556 27.35843 32.655005 25.499902 32.654595 L 12.501391 32.655505 C 10.642864 32.655095 8.926607 31.666311 7.992931 30.065065 L 1.505441 18.919994 C 0.575512 17.315032 0.576428 15.337083 1.508743 13.736279 L 7.993625 2.593919 C 8.925971 0.985651 10.639396 0.000202161 12.497923 0.000612137 L 25.503898 -0.000265763 C 27.354962 0.000112591 29.074966 0.98518 30.008611 2.59389 L 36.492384 13.735213 C 37.422313 15.340175 37.421397 17.318124 36.492799 18.922676 Z M 36.492799 18.922676 " stroke="#171710" stroke-width="6" stroke-opacity="1" stroke-miterlimit="4"/></g></g></g></g><g clip-path="url(#993d1fd4e6)"><g clip-path="url(#d5a164770e)"><g clip-path="url(#7f11cff43a)"><path fill="#024de5" d="M 6.148438 19.535156 L 20.015625 5.550781 L 32.03125 17.460938 L 18.164062 31.445312 Z M 6.148438 19.535156 " fill-opacity="1" fill-rule="nonzero"/></g></g></g><g clip-path="url(#1f5b2d4a7d)"><g clip-path="url(#2773595d69)"><g clip-path="url(#37f9f62948)"><g clip-path="url(#6c8405145c)"><path stroke-linecap="butt" transform="matrix(0.52113, -0.525565, 0.525565, 0.52113, 6.152213, 19.530638)" fill="none" stroke-linejoin="miter" d="M 25.575113 13.148622 L 20.943554 21.11545 C 20.319502 22.187618 19.17472 22.847061 17.939439 22.84556 L 8.646803 22.84351 C 7.407774 22.845724 6.261126 22.184037 5.642401 21.1178 L 1.003716 13.149017 C 0.384991 12.082779 0.383125 10.761648 1.003429 9.693196 L 5.642452 1.7264 C 6.262757 0.657948 7.407538 -0.00149516 8.642819 0.00000631878 L 17.939204 -0.00165991 C 19.174485 -0.000158431 20.317417 0.657781 20.939857 1.727766 L 25.574827 9.692801 C 26.197267 10.762787 26.199134 12.083918 25.575113 13.148622 Z M 25.575113 13.148622 " stroke="#024de5" stroke-width="40" stroke-opacity="1" stroke-miterlimit="4"/></g></g></g></g><g clip-path="url(#d3c67b103e)"><g clip-path="url(#497dc8841f)"><g clip-path="url(#690882d9fc)"><path fill="#ffffff" d="M 20.78125 10.050781 L 27.53125 3.300781 L 34.285156 10.050781 L 27.53125 16.804688 Z M 20.78125 10.050781 " fill-opacity="1" fill-rule="nonzero"/></g></g></g><g clip-path="url(#11ed6efc0f)"><g clip-path="url(#71ee981c26)"><g clip-path="url(#cbe38d1389)"><path fill="#024de5" d="M 21.765625 10.054688 L 27.53125 4.285156 L 33.300781 10.054688 L 27.53125 15.820312 Z M 21.765625 10.054688 " fill-opacity="1" fill-rule="nonzero"/></g></g></g><g clip-path="url(#683800dcbe)"><g clip-path="url(#403fee4b35)"><g clip-path="url(#cc793c3ef4)"><path fill="#ffffff" d="M 3.808594 27.023438 L 10.558594 20.273438 L 17.3125 27.023438 L 10.558594 33.777344 Z M 3.808594 27.023438 " fill-opacity="1" fill-rule="nonzero"/></g></g></g><g clip-path="url(#222e9ba741)"><g clip-path="url(#0656bda752)"><g clip-path="url(#1f74bca9ef)"><path fill="#024de5" d="M 4.789062 27.027344 L 10.558594 21.261719 L 16.324219 27.027344 L 10.558594 32.796875 Z M 4.789062 27.027344 " fill-opacity="1" fill-rule="nonzero"/></g></g></g><g fill="#024de5" fill-opacity="1"><g transform="translate(33.363553, 25.171771)"><g><path d="M 5.40625 -11.046875 C 7.195312 -11.046875 8.5625 -10.582031 9.5 -9.65625 C 10.445312 -8.726562 10.921875 -7.347656 10.921875 -5.515625 C 10.921875 -3.691406 10.445312 -2.316406 9.5 -1.390625 C 8.5625 -0.460938 7.195312 0 5.40625 0 L 1.4375 0 L 1.4375 -11.046875 Z M 5.28125 -1.828125 C 6.414062 -1.828125 7.265625 -2.117188 7.828125 -2.703125 C 8.390625 -3.285156 8.671875 -4.222656 8.671875 -5.515625 C 8.671875 -6.816406 8.390625 -7.753906 7.828125 -8.328125 C 7.265625 -8.910156 6.414062 -9.203125 5.28125 -9.203125 L 3.625 -9.203125 L 3.625 -1.828125 Z M 5.28125 -1.828125 "/></g></g><g transform="translate(45.172289, 25.171771)"><g><path d="M 8.234375 -3.6875 L 2.875 -3.6875 C 2.9375 -2.96875 3.144531 -2.441406 3.5 -2.109375 C 3.851562 -1.773438 4.332031 -1.609375 4.9375 -1.609375 C 5.414062 -1.609375 5.800781 -1.695312 6.09375 -1.875 C 6.394531 -2.0625 6.640625 -2.335938 6.828125 -2.703125 L 6.984375 -2.703125 L 8.375 -1.8125 C 8.101562 -1.21875 7.691406 -0.738281 7.140625 -0.375 C 6.585938 -0.0195312 5.851562 0.15625 4.9375 0.15625 C 4.070312 0.15625 3.328125 -0.00390625 2.703125 -0.328125 C 2.078125 -0.660156 1.59375 -1.148438 1.25 -1.796875 C 0.914062 -2.441406 0.75 -3.226562 0.75 -4.15625 C 0.75 -5.101562 0.925781 -5.898438 1.28125 -6.546875 C 1.632812 -7.203125 2.113281 -7.6875 2.71875 -8 C 3.332031 -8.320312 4.019531 -8.484375 4.78125 -8.484375 C 5.96875 -8.484375 6.875 -8.171875 7.5 -7.546875 C 8.125 -6.921875 8.4375 -6.003906 8.4375 -4.796875 C 8.4375 -4.359375 8.421875 -4.019531 8.390625 -3.78125 Z M 6.4375 -5.046875 C 6.414062 -5.679688 6.265625 -6.140625 5.984375 -6.421875 C 5.710938 -6.710938 5.3125 -6.859375 4.78125 -6.859375 C 3.726562 -6.859375 3.109375 -6.253906 2.921875 -5.046875 Z M 6.4375 -5.046875 "/></g></g><g transform="translate(54.230942, 25.171771)"><g><path d="M 4.859375 0.15625 C 4.046875 0.15625 3.332031 -0.0078125 2.71875 -0.34375 C 2.101562 -0.675781 1.617188 -1.164062 1.265625 -1.8125 C 0.921875 -2.46875 0.75 -3.25 0.75 -4.15625 C 0.75 -5.070312 0.921875 -5.851562 1.265625 -6.5 C 1.617188 -7.15625 2.101562 -7.648438 2.71875 -7.984375 C 3.332031 -8.316406 4.03125 -8.484375 4.8125 -8.484375 C 6.570312 -8.484375 7.695312 -7.847656 8.1875 -6.578125 L 6.765625 -5.546875 L 6.59375 -5.546875 C 6.425781 -5.941406 6.203125 -6.234375 5.921875 -6.421875 C 5.648438 -6.617188 5.28125 -6.71875 4.8125 -6.71875 C 4.207031 -6.71875 3.738281 -6.503906 3.40625 -6.078125 C 3.070312 -5.660156 2.90625 -5.019531 2.90625 -4.15625 C 2.90625 -3.300781 3.070312 -2.660156 3.40625 -2.234375 C 3.75 -1.816406 4.234375 -1.609375 4.859375 -1.609375 C 5.304688 -1.609375 5.6875 -1.726562 6 -1.96875 C 6.320312 -2.21875 6.550781 -2.570312 6.6875 -3.03125 L 6.84375 -3.046875 L 8.328125 -2.234375 C 8.117188 -1.523438 7.726562 -0.945312 7.15625 -0.5 C 6.582031 -0.0625 5.816406 0.15625 4.859375 0.15625 Z M 4.859375 0.15625 "/></g></g><g transform="translate(62.821174, 25.171771)"><g><path d="M 8.234375 -3.6875 L 2.875 -3.6875 C 2.9375 -2.96875 3.144531 -2.441406 3.5 -2.109375 C 3.851562 -1.773438 4.332031 -1.609375 4.9375 -1.609375 C 5.414062 -1.609375 5.800781 -1.695312 6.09375 -1.875 C 6.394531 -2.0625 6.640625 -2.335938 6.828125 -2.703125 L 6.984375 -2.703125 L 8.375 -1.8125 C 8.101562 -1.21875 7.691406 -0.738281 7.140625 -0.375 C 6.585938 -0.0195312 5.851562 0.15625 4.9375 0.15625 C 4.070312 0.15625 3.328125 -0.00390625 2.703125 -0.328125 C 2.078125 -0.660156 1.59375 -1.148438 1.25 -1.796875 C 0.914062 -2.441406 0.75 -3.226562 0.75 -4.15625 C 0.75 -5.101562 0.925781 -5.898438 1.28125 -6.546875 C 1.632812 -7.203125 2.113281 -7.6875 2.71875 -8 C 3.332031 -8.320312 4.019531 -8.484375 4.78125 -8.484375 C 5.96875 -8.484375 6.875 -8.171875 7.5 -7.546875 C 8.125 -6.921875 8.4375 -6.003906 8.4375 -4.796875 C 8.4375 -4.359375 8.421875 -4.019531 8.390625 -3.78125 Z M 6.4375 -5.046875 C 6.414062 -5.679688 6.265625 -6.140625 5.984375 -6.421875 C 5.710938 -6.710938 5.3125 -6.859375 4.78125 -6.859375 C 3.726562 -6.859375 3.109375 -6.253906 2.921875 -5.046875 Z M 6.4375 -5.046875 "/></g></g><g transform="translate(71.879827, 25.171771)"><g><path d="M 1.203125 0 L 1.203125 -8.328125 L 3.203125 -8.328125 L 3.203125 -7.109375 L 3.375 -7.0625 C 3.882812 -8.007812 4.722656 -8.484375 5.890625 -8.484375 C 6.847656 -8.484375 7.550781 -8.222656 8 -7.703125 C 8.457031 -7.179688 8.6875 -6.421875 8.6875 -5.421875 L 8.6875 0 L 6.59375 0 L 6.59375 -5.15625 C 6.59375 -5.707031 6.476562 -6.101562 6.25 -6.34375 C 6.03125 -6.59375 5.679688 -6.71875 5.203125 -6.71875 C 4.597656 -6.71875 4.128906 -6.523438 3.796875 -6.140625 C 3.460938 -5.753906 3.296875 -5.144531 3.296875 -4.3125 L 3.296875 0 Z M 1.203125 0 "/></g></g></g><g fill="#000000" fill-opacity="1"><g transform="translate(80.946866, 25.171771)"><g><path d="M 8.859375 -11.046875 L 8.859375 -9.203125 L 5.671875 -9.203125 L 5.671875 0 L 3.484375 0 L 3.484375 -9.203125 L 0.296875 -9.203125 L 0.296875 -11.046875 Z M 8.859375 -11.046875 "/></g></g><g transform="translate(90.103736, 25.171771)"><g><path d="M 1.203125 0 L 1.203125 -8.328125 L 3.234375 -8.328125 L 3.234375 -7.09375 L 3.390625 -7.0625 C 3.585938 -7.519531 3.847656 -7.859375 4.171875 -8.078125 C 4.503906 -8.296875 4.90625 -8.40625 5.375 -8.40625 C 5.851562 -8.40625 6.210938 -8.328125 6.453125 -8.171875 L 6.109375 -6.359375 L 5.9375 -6.328125 C 5.800781 -6.378906 5.671875 -6.414062 5.546875 -6.4375 C 5.421875 -6.46875 5.269531 -6.484375 5.09375 -6.484375 C 4.507812 -6.484375 4.0625 -6.273438 3.75 -5.859375 C 3.445312 -5.453125 3.296875 -4.796875 3.296875 -3.890625 L 3.296875 0 Z M 1.203125 0 "/></g></g><g transform="translate(96.638961, 25.171771)"><g><path d="M 2.25 -9.328125 C 1.863281 -9.328125 1.550781 -9.441406 1.3125 -9.671875 C 1.082031 -9.898438 0.96875 -10.195312 0.96875 -10.5625 C 0.96875 -10.914062 1.082031 -11.207031 1.3125 -11.4375 C 1.550781 -11.664062 1.863281 -11.78125 2.25 -11.78125 C 2.5 -11.78125 2.71875 -11.726562 2.90625 -11.625 C 3.101562 -11.519531 3.253906 -11.375 3.359375 -11.1875 C 3.472656 -11.007812 3.53125 -10.800781 3.53125 -10.5625 C 3.53125 -10.320312 3.472656 -10.109375 3.359375 -9.921875 C 3.253906 -9.734375 3.101562 -9.585938 2.90625 -9.484375 C 2.71875 -9.378906 2.5 -9.328125 2.25 -9.328125 Z M 1.203125 0 L 1.203125 -8.328125 L 3.296875 -8.328125 L 3.296875 0 Z M 1.203125 0 "/></g></g><g transform="translate(101.126734, 25.171771)"><g><path d="M 3.25 0.15625 C 2.71875 0.15625 2.253906 0.0546875 1.859375 -0.140625 C 1.460938 -0.335938 1.160156 -0.625 0.953125 -1 C 0.742188 -1.382812 0.640625 -1.84375 0.640625 -2.375 C 0.640625 -2.863281 0.742188 -3.273438 0.953125 -3.609375 C 1.160156 -3.941406 1.484375 -4.21875 1.921875 -4.4375 C 2.367188 -4.65625 2.953125 -4.820312 3.671875 -4.9375 C 4.171875 -5.007812 4.550781 -5.09375 4.8125 -5.1875 C 5.070312 -5.289062 5.242188 -5.398438 5.328125 -5.515625 C 5.421875 -5.640625 5.46875 -5.796875 5.46875 -5.984375 C 5.46875 -6.242188 5.375 -6.445312 5.1875 -6.59375 C 5 -6.738281 4.691406 -6.8125 4.265625 -6.8125 C 3.796875 -6.8125 3.351562 -6.707031 2.9375 -6.5 C 2.519531 -6.289062 2.15625 -6.019531 1.84375 -5.6875 L 1.703125 -5.6875 L 0.828125 -7 C 1.242188 -7.46875 1.753906 -7.832031 2.359375 -8.09375 C 2.972656 -8.351562 3.640625 -8.484375 4.359375 -8.484375 C 5.460938 -8.484375 6.257812 -8.25 6.75 -7.78125 C 7.25 -7.3125 7.5 -6.648438 7.5 -5.796875 L 7.5 -2.171875 C 7.5 -1.796875 7.660156 -1.609375 7.984375 -1.609375 C 8.117188 -1.609375 8.242188 -1.632812 8.359375 -1.6875 L 8.46875 -1.65625 L 8.625 -0.203125 C 8.5 -0.117188 8.332031 -0.0507812 8.125 0 C 7.925781 0.0390625 7.703125 0.0625 7.453125 0.0625 C 6.953125 0.0625 6.5625 -0.03125 6.28125 -0.21875 C 6.007812 -0.414062 5.8125 -0.71875 5.6875 -1.125 L 5.53125 -1.140625 C 5.125 -0.273438 4.363281 0.15625 3.25 0.15625 Z M 3.90625 -1.40625 C 4.394531 -1.40625 4.78125 -1.566406 5.0625 -1.890625 C 5.351562 -2.210938 5.5 -2.664062 5.5 -3.25 L 5.5 -4.09375 L 5.359375 -4.125 C 5.234375 -4.019531 5.066406 -3.929688 4.859375 -3.859375 C 4.660156 -3.796875 4.367188 -3.734375 3.984375 -3.671875 C 3.535156 -3.597656 3.210938 -3.46875 3.015625 -3.28125 C 2.816406 -3.09375 2.71875 -2.832031 2.71875 -2.5 C 2.71875 -2.144531 2.820312 -1.875 3.03125 -1.6875 C 3.238281 -1.5 3.53125 -1.40625 3.90625 -1.40625 Z M 3.90625 -1.40625 "/></g></g><g transform="translate(109.9134, 25.171771)"><g><path d="M 3.453125 0.15625 C 2.703125 0.15625 2.128906 -0.046875 1.734375 -0.453125 C 1.335938 -0.859375 1.140625 -1.472656 1.140625 -2.296875 L 1.140625 -11.671875 L 3.234375 -11.671875 L 3.234375 -2.375 C 3.234375 -1.863281 3.445312 -1.609375 3.875 -1.609375 C 4 -1.609375 4.128906 -1.628906 4.265625 -1.671875 L 4.359375 -1.640625 L 4.546875 -0.03125 C 4.429688 0.0195312 4.28125 0.0625 4.09375 0.09375 C 3.90625 0.132812 3.691406 0.15625 3.453125 0.15625 Z M 3.453125 0.15625 "/></g></g><g transform="translate(114.70338, 25.171771)"><g><path d="M 7 0 L 0.4375 0 L 0.4375 -1.734375 L 4.46875 -6.515625 L 4.421875 -6.671875 L 0.625 -6.671875 L 0.625 -8.34375 L 6.9375 -8.34375 L 6.9375 -6.609375 L 2.90625 -1.8125 L 2.953125 -1.65625 L 7 -1.65625 Z M 7 0 "/></g></g></g></svg>